<svg xmlns="http://www.w3.org/2000/svg" viewBox="0 0 500 500"><g id="freepik--speech-bubbles--inject-61"><circle cx="167.33" cy="88.39" r="27.22" transform="translate(-17.27 46.74) rotate(-15.13)" style="fill:#fff"></circle><path d="M187.93,70.59l-.32-.3-.92-.92-.66-.68c-.26-.24-.56-.47-.88-.74a18.78,18.78,0,0,0-2.27-1.75,26.12,26.12,0,0,0-7-3.48,27.25,27.25,0,0,0-10.23-1.29,26.9,26.9,0,0,0-21.85,13.79,28.37,28.37,0,0,0-1.65,3.47c-.23.61-.41,1.23-.61,1.86a12.18,12.18,0,0,0-.5,1.91,30.67,30.67,0,0,0-.62,4,32.89,32.89,0,0,0,0,4.09,25.94,25.94,0,0,0,1.94,8.14,26.74,26.74,0,0,0,11.12,12.88,26,26,0,0,0,7.78,3.1,29.51,29.51,0,0,0,4,.64,29.92,29.92,0,0,0,4,0,14.15,14.15,0,0,0,2-.21c.65-.12,1.3-.2,1.93-.34a28,28,0,0,0,3.68-1.13,27.07,27.07,0,0,0,17-29.92,25.8,25.8,0,0,0-2.42-7.43,18.76,18.76,0,0,0-1.4-2.5c-.22-.35-.41-.68-.61-1L189,72l-.78-1a3.51,3.51,0,0,1-.25-.36,2,2,0,0,1,.29.33l.82,1,.6.74c.21.29.4.62.63,1a17.86,17.86,0,0,1,1.45,2.49,25.63,25.63,0,0,1,2.53,7.47,27.42,27.42,0,0,1-5.46,21.87A27.63,27.63,0,0,1,177.12,114a29,29,0,0,1-3.74,1.16c-.65.14-1.31.23-2,.35a14.92,14.92,0,0,1-2,.22,24.91,24.91,0,0,1-8.22-.61,26.54,26.54,0,0,1-7.92-3.16,27.09,27.09,0,0,1-11.34-13.12,26.46,26.46,0,0,1-2-8.3,32.27,32.27,0,0,1,0-4.17,31.48,31.48,0,0,1,.63-4,14.32,14.32,0,0,1,.51-1.95c.22-.63.4-1.27.63-1.89A30.16,30.16,0,0,1,143.39,75a27.53,27.53,0,0,1,10.16-10.3A27.36,27.36,0,0,1,176,62.45,26,26,0,0,1,183,66a20.31,20.31,0,0,1,2.25,1.8c.32.28.62.52.87.77l.65.7.88,1A2.35,2.35,0,0,1,187.93,70.59Z" style="fill:#263238"></path><path d="M159.94,80.78h4.31A3.66,3.66,0,0,1,168,77.1a3.47,3.47,0,0,1,3.38,2.22,3.85,3.85,0,0,1-.31,3.5c-.73,1.2-2.33,2.3-5.24,1.79v9.72h4.27v-5.7a8.32,8.32,0,0,0,6-8.13c0-6.31-5.66-7.77-8.08-7.77C166.16,72.73,159.86,73.18,159.94,80.78Z" style="fill:#FD7E14"></path><rect x="165.83" y="96.33" width="4.33" height="4.04" style="fill:#FD7E14"></rect><path d="M204.56,101.14a3.31,3.31,0,1,1-3.31-3.31A3.31,3.31,0,0,1,204.56,101.14Z" style="fill:#fff"></path><path d="M204.56,101.14a7.49,7.49,0,0,1-.2-.79,3.33,3.33,0,0,0-1.22-1.7,3.13,3.13,0,0,0-2.93-.39,3.07,3.07,0,0,0,0,5.76,3.14,3.14,0,0,0,2.93-.4,3.33,3.33,0,0,0,1.22-1.7c.15-.49.15-.79.2-.78s.09.29,0,.83a3.26,3.26,0,0,1-1.18,1.94,3.49,3.49,0,0,1-3.32.56,3.53,3.53,0,0,1,0-6.66,3.46,3.46,0,0,1,3.32.55,3.26,3.26,0,0,1,1.18,1.94A1.5,1.5,0,0,1,204.56,101.14Z" style="fill:#263238"></path><path d="M303.62,97.88l9.09-.53a29.32,29.32,0,1,0-6.28-8.42h0Z" style="fill:#fff"></path><path d="M303.62,97.88s.05-.19.16-.57l.52-1.71c.47-1.53,1.15-3.78,2.05-6.71l0-.12.09.1h0l-.13.08a29.3,29.3,0,0,1-3.09-14.06,27.77,27.77,0,0,1,.5-4.52,32.78,32.78,0,0,1,1.33-4.69,29.18,29.18,0,0,1,14.73-16.24,29.54,29.54,0,0,1,12.28-3,29.12,29.12,0,0,1,13.11,2.84,28.8,28.8,0,0,1,10.89,8.86c.35.49.72,1,1.07,1.46l.93,1.55.46.77.39.81c.25.54.51,1.08.77,1.62s.41,1.11.62,1.66a14.39,14.39,0,0,1,.56,1.68,27.31,27.31,0,0,1,.76,3.43,29.08,29.08,0,0,1-7.24,24.47,29.37,29.37,0,0,1-19.8,9.58,30.67,30.67,0,0,1-4.9-.06,37.91,37.91,0,0,1-4.48-.81,29.17,29.17,0,0,1-12.59-6.94l.06,0-6.8.35-1.73.09-.57,0,.6,0,1.75-.12,6.74-.44h0l0,0a29.1,29.1,0,0,0,12.54,6.83,37.62,37.62,0,0,0,4.46.78,32.56,32.56,0,0,0,4.85,0,29.1,29.1,0,0,0,10.22-2.63,29,29,0,0,0,16.49-31.11,26.91,26.91,0,0,0-.75-3.38,14,14,0,0,0-.55-1.66c-.21-.55-.38-1.11-.62-1.65s-.5-1.06-.76-1.59l-.38-.8-.46-.76-.92-1.53c-.34-.49-.7-1-1.06-1.45a28.63,28.63,0,0,0-10.75-8.76,29,29,0,0,0-13-2.81,29.27,29.27,0,0,0-21.37,9.92,28.94,28.94,0,0,0-5.39,9A31.93,31.93,0,0,0,304,70.43a28.39,28.39,0,0,0-.52,4.48,29.25,29.25,0,0,0,3,14l.24.5-.37-.41h0l.13,0c-.92,2.89-1.64,5.12-2.12,6.63-.24.75-.43,1.32-.55,1.72Z" style="fill:#263238"></path><path d="M323.68,70.33h4.16a3.54,3.54,0,0,1,3.64-3.56,3.38,3.38,0,0,1,3.27,2.15,3.75,3.75,0,0,1-.3,3.38c-.71,1.16-2.26,2.22-5.06,1.73v9.39h4.12v-5.5a8.05,8.05,0,0,0,5.78-7.86c0-6.1-5.47-7.51-7.81-7.51C329.69,62.55,323.6,63,323.68,70.33Z" style="fill:#FD7E14"></path><rect x="329.37" y="85.36" width="4.18" height="3.91" style="fill:#FD7E14"></rect></g><g id="freepik--Character--inject-61"><path d="M240.73,428.21l.7,22.78s-22.92,8.36-23.21,12.59l44.23.22.36-35.54Z" style="fill:#263238"></path><path d="M255.11,449.14a1.81,1.81,0,0,1,1.24,2.07,1.74,1.74,0,0,1-2,1.25,1.91,1.91,0,0,1-1.3-2.2,1.82,1.82,0,0,1,2.27-1.06" style="fill:#e0e0e0"></path><path d="M262.45,463.8l-.11-3.58L220,461.34s-2,.85-1.76,2.24Z" style="fill:#455a64"></path><path d="M240.71,450.76c0,.22,1.09.32,2.15,1s1.62,1.61,1.82,1.53-.12-1.34-1.42-2.16S240.67,450.56,240.71,450.76Z" style="fill:#fff"></path><path d="M236.06,452.66c-.05.2.89.58,1.62,1.49s.93,1.89,1.15,1.88.35-1.23-.57-2.35S236.07,452.45,236.06,452.66Z" style="fill:#fff"></path><path d="M233.4,458.19c.2.05.5-1-.05-2.21s-1.55-1.66-1.64-1.48.53.81,1,1.79S233.19,458.17,233.4,458.19Z" style="fill:#fff"></path><path d="M241.13,445.55c.09.2,1.08-.09,2.3,0s2.17.47,2.28.29-.79-1-2.23-1S241,445.38,241.13,445.55Z" style="fill:#fff"></path><path d="M292.68,433.11l2.39,27.47-4.37,22.28a2.84,2.84,0,0,0,2.42,3.35h0a2.81,2.81,0,0,0,2.43-.89c3.94-4.3,18.36-20.18,18.07-22.18-.33-2.31-.6-29.14-.6-29.14Z" style="fill:#263238"></path><path d="M293.12,486.21l20.38-24.92.08,1.16a4.31,4.31,0,0,1-.83,2.82c-1.62,2.16-6.21,8.05-17.12,20.05a2.84,2.84,0,0,1-2.51.89Z" style="fill:#455a64"></path><g style="opacity:0.6000000000000001"><path d="M307.29,452.77A1.72,1.72,0,0,0,307,455a1.65,1.65,0,0,0,2.24.34,1.81,1.81,0,0,0,.33-2.39,1.71,1.71,0,0,0-2.37-.1" style="fill:#fff"></path></g><path d="M298.64,473.78a6.08,6.08,0,0,0-5.76-2.39c0-.07.31-.3.94-.43a4.39,4.39,0,0,1,2.5.27,4.48,4.48,0,0,1,2,1.57C298.63,473.35,298.7,473.75,298.64,473.78Z" style="fill:#fff"></path><path d="M296.91,477.59a23.56,23.56,0,0,0-2.51-1,22.5,22.5,0,0,0-2.71-.17c-.09-.14,1.2-.81,2.85-.42S297.05,477.51,296.91,477.59Z" style="fill:#fff"></path><path d="M302,468.82c-.12.14-1.56-1.16-3.77-1.85s-4.13-.5-4.14-.69a7.74,7.74,0,0,1,7.91,2.54Z" style="fill:#fff"></path><path d="M302,460.41c-.06.17-1.62-.37-3.6-.31s-3.52.63-3.59.46,1.44-1,3.57-1.07A5.51,5.51,0,0,1,302,460.41Z" style="fill:#fff"></path><path d="M301.45,452.33a13.39,13.39,0,0,0-3.74-.43c-2.09.19-3.49,1.3-3.59,1.15s.23-.42.84-.82a6,6,0,0,1,2.69-.93,6.08,6.08,0,0,1,2.82.38C301.15,452,301.49,452.26,301.45,452.33Z" style="fill:#fff"></path><path d="M297.66,450.36a2.35,2.35,0,0,1-.11-1,7.22,7.22,0,0,1,.66-2.78,3.24,3.24,0,0,1,1.27-1.62,1.17,1.17,0,0,1,1.3.17,1.91,1.91,0,0,1,.51,1.22,4,4,0,0,1-3.25,3.91,4.64,4.64,0,0,1-4.7-2.13,1.57,1.57,0,0,1-.16-1.33,1.12,1.12,0,0,1,1.12-.66,4,4,0,0,1,1.88.83,8.18,8.18,0,0,1,2,2,2.6,2.6,0,0,1,.49.93,13.41,13.41,0,0,0-2.74-2.59,3.74,3.74,0,0,0-1.65-.68.6.6,0,0,0-.62.36,1.11,1.11,0,0,0,.16.87,4.15,4.15,0,0,0,4.09,1.8,3.47,3.47,0,0,0,2.81-3.29,1.28,1.28,0,0,0-.32-.86.62.62,0,0,0-.71-.1,3,3,0,0,0-1.11,1.35A10.48,10.48,0,0,0,297.66,450.36Z" style="fill:#fff"></path><path d="M218.08,239.31a98.09,98.09,0,0,0-2.14,28.8c.47,6.12,21.13,175.43,21.13,175.43H265l-7.84-159.13,2.29.49s15.22,67.87,16.46,78.86c1.12,9.88,14.79,87.51,14.79,87.51L317,451l-9.78-100.21-9.48-91.06-3.56-26.51Z" style="fill:#263238"></path><path d="M221.31,267.47c25.7,8.86,59.47,13.31,76.8-3.76l-5.62-129.38H227Z" style="fill:#e0e0e0"></path><path d="M270.76,201.65c.1.11-4.43,4.35-10.11,9.47s-10.35,9.2-10.45,9.09,4.43-4.35,10.11-9.47S270.66,201.54,270.76,201.65Z" style="fill:#263238"></path><path d="M246.41,273.87s1.66-108.65-.53-114-10,112.37-9.29,112.37Z" style="opacity:0.30000000000000004"></path><path d="M219.28,161.77,216,216.56l-2.4,55c7.11,5.43,16.79,8.26,28.34,9.18l4.51-111.2V126.92l-.8-.54-5.52,4.76-1.26.14c-.89-1.82-2.28-1.14-2.28-1.14a1.85,1.85,0,0,0-1.07-.88,2.42,2.42,0,0,0-2.15.88l-1-1.08c-1.65-.47-2.58,1.56-2.58,1.56-14.43,1.6-16.39,10.08-18.64,15.46Z" style="fill:#FD7E14"></path><path d="M223.51,162.84c-.16.46-1.39,31.31-1.39,31.31s3.38,3.53,2.15,8.14-3.47,15.22-9.56,15.68c-8.54.65-16.53-4.33-16.37-19.67S211,146.08,211,146.08l14.69,10.42Z" style="fill:#FD7E14"></path><path d="M272.86,124.87s5.1,3.31,6.58,5.73l3.69,0c.65-.07,1.34-.81,2.17-.78.5,0,1.09.77,1.63.82s.84-.78,1.32-.72c1,.12,1.8.81,2.89,1.08,4.12,1,8.71,2.42,10.87,4,5.6,4,7.48,11.12,7.48,11.12s-15.11,16.29-14.06,17.06.48,41.6.48,41.6S301.5,267,300,269s-16.49,11.13-30.61,10.33c0,0-.45-7.89.72-26.47,1.76-27.94,1.57-38,2.06-48,.8-16.22-.14-46.82,0-51.9C272.31,149.25,272.51,125,272.86,124.87Z" style="fill:#FD7E14"></path><g style="opacity:0.30000000000000004"><path d="M293.73,194.41a21.47,21.47,0,0,0,3.47,26.45v-6.34l-3-18.65Z"></path></g><path d="M309.49,146.06s5.28,39.83,8,43.5,1.84,8.87,1.13,13.92c-.78,5.53-3.54,18.66-14,17.75-5.51-.47-8.78-4.46-10.66-10.41-3.26-10.32,1-22.5,1-25.3s-3.32-23.7-2.93-24.79S309.49,146.06,309.49,146.06Z" style="fill:#FD7E14"></path><path d="M246.24,153.05a4.61,4.61,0,0,1-.59-.85,14.84,14.84,0,0,0-1.71-2.22,6.35,6.35,0,0,0-1.53-1.16,5.81,5.81,0,0,0-2.12-.56,8.27,8.27,0,0,0-5,1.11l-.58.34.2-.64c.25-.79.5-1.62.74-2.47,1.18-4.22,2.24-8,3-10.95.38-1.32.69-2.42,1-3.31a5.77,5.77,0,0,1,.41-1.2,5.82,5.82,0,0,1-.22,1.25c-.17.8-.44,1.94-.78,3.36-.7,2.82-1.68,6.72-2.91,11-.24.85-.49,1.69-.75,2.48l-.38-.3c3.44-2,7.62-1.23,9.13.83a11.75,11.75,0,0,1,1.63,2.36A4.66,4.66,0,0,1,246.24,153.05Z" style="fill:#263238"></path><g style="opacity:0.30000000000000004"><path d="M275.76,149.13a7.58,7.58,0,0,1,5.21-.23l0,.08a19.68,19.68,0,0,1,1,4.07c-2.88-1.69-6.55-2.39-9.51-.84A7.45,7.45,0,0,1,275.76,149.13Z"></path></g><path d="M272.19,152.41a3.12,3.12,0,0,1,.53-.82,10.12,10.12,0,0,1,1.9-1.93,7.07,7.07,0,0,1,1.65-1,5.48,5.48,0,0,1,2.21-.42,7.32,7.32,0,0,1,4.82,1.85l-.43.22c-.16-1.13-.37-2.32-.58-3.54-.8-4.41-1.53-8.4-2.09-11.43l-.6-3.47a7.46,7.46,0,0,1-.16-1.28,5.7,5.7,0,0,1,.36,1.24c.19.81.45,2,.77,3.44.61,2.91,1.44,6.94,2.24,11.41.21,1.22.41,2.42.57,3.57l.09.69-.51-.47a7,7,0,0,0-4.49-1.79,5.69,5.69,0,0,0-3.66,1.23A20.21,20.21,0,0,0,272.19,152.41Z" style="fill:#263238"></path><g style="opacity:0.30000000000000004"><path d="M226.88,203a11,11,0,0,0-11.95,12.74c.17-.09,1.13-.46,1.13-.46l-.29,4.9a14.06,14.06,0,0,0,9.54-6.16A13.54,13.54,0,0,0,226.88,203Z"></path></g><path d="M214.71,218a12.18,12.18,0,0,0,8.07-4.47,19,19,0,0,0,3.94-8.87c.66-3.66.39-7.71-1.67-10.72s-5.13-4.32-8.49-5.53" style="fill:#FD7E14"></path><path d="M216.56,188.38a8.08,8.08,0,0,1,1.53.47,18.85,18.85,0,0,1,4,1.88,11,11,0,0,1,4.21,5,15.45,15.45,0,0,1,.87,7.91,20.88,20.88,0,0,1-2.46,7.59,14.64,14.64,0,0,1-4.36,4.84,11.3,11.3,0,0,1-4,1.78,8.79,8.79,0,0,1-1.18.18,1.25,1.25,0,0,1-.42,0s.57-.09,1.55-.36a12.07,12.07,0,0,0,3.85-1.89,14.69,14.69,0,0,0,4.15-4.78,21,21,0,0,0,2.37-7.41,15.36,15.36,0,0,0-.8-7.67,10.88,10.88,0,0,0-4-4.82,21.93,21.93,0,0,0-3.83-2A9.31,9.31,0,0,1,216.56,188.38Z" style="fill:#263238"></path><path d="M218.89,154.8a12.4,12.4,0,0,1,.67,1.87c.4,1.31.93,3,1.56,5.06v.06c0,3,.06,6.55.1,10.45,0,4.84.08,9.22.11,12.53,0,1.53,0,2.81,0,3.8a7,7,0,0,1-.05,1.4,7.52,7.52,0,0,1-.15-1.39c-.06-.9-.13-2.19-.19-3.8-.12-3.21-.22-7.64-.26-12.54,0-3.92,0-7.54,0-10.45v.06l-1.39-5.12A12.32,12.32,0,0,1,218.89,154.8Z" style="fill:#263238"></path><path d="M299.63,156a10,10,0,0,1-.9,1.43l-2.6,3.79,0-.12c0,3.15-.11,7.33-.33,11.9-.26,5-.49,9.45-.67,12.83-.07,1.57-.14,2.87-.18,3.89a9.28,9.28,0,0,1-.12,1.43,6.8,6.8,0,0,1-.09-1.43c0-.92,0-2.26,0-3.9.06-3.29.27-7.83.52-12.85.22-4.56.39-8.73.46-11.87V161l0,0,2.74-3.68A7.87,7.87,0,0,1,299.63,156Z" style="fill:#263238"></path><path d="M306.76,221.22a11.62,11.62,0,0,1-1.69,0,12.91,12.91,0,0,1-4.45-1.2,12.62,12.62,0,0,1-4.93-4.71,27.27,27.27,0,0,1-3.25-16.2,25.25,25.25,0,0,1,1.76-6.59,20,20,0,0,1,2.24-4,12.3,12.3,0,0,1,.78-1c.18-.22.29-.33.3-.31a30.63,30.63,0,0,0-3,5.44,25.77,25.77,0,0,0-1.62,6.52,27.63,27.63,0,0,0,3.18,15.89,12.45,12.45,0,0,0,4.69,4.63,13.64,13.64,0,0,0,4.3,1.33A9.72,9.72,0,0,1,306.76,221.22Z" style="fill:#263238"></path><g style="opacity:0.30000000000000004"><path d="M242.24,148.57a7.56,7.56,0,0,0-5.2-.24l0,.09a18.92,18.92,0,0,0-1,4.07,10,10,0,0,1,9.59-.22A7,7,0,0,0,242.24,148.57Z"></path></g><path d="M256.06,67.18l-1.12,0a21.67,21.67,0,0,0-20.78,20.82c-.41,10.5-.73,20.76-.43,26.38.62,11.62,12.56,12.76,12.56,12.76s0,4,0,7.46a15,15,0,0,0,24.79,1.6l1.43-1.8,1.77-44.53C274.79,77.81,268.19,67.39,256.06,67.18Z" style="fill:#ffbf9d"></path><path d="M246.29,127.3a28.1,28.1,0,0,0,15-5.1s-3.28,8.89-14.93,8.33Z" style="fill:#ff9a6c"></path><path d="M239.51,97a1.66,1.66,0,0,0,1.67,1.61A1.59,1.59,0,0,0,242.83,97a1.65,1.65,0,0,0-1.67-1.61A1.6,1.6,0,0,0,239.51,97Z" style="fill:#263238"></path><path d="M236.84,93.08c.22.21,1.44-.78,3.22-.85s3.14.77,3.32.55-.13-.49-.72-.88a4.57,4.57,0,0,0-2.67-.7,4.37,4.37,0,0,0-2.55.94C236.91,92.59,236.74,93,236.84,93.08Z" style="fill:#263238"></path><path d="M256,96.76a1.65,1.65,0,0,0,1.67,1.61,1.6,1.6,0,0,0,1.65-1.57,1.67,1.67,0,0,0-1.67-1.61A1.59,1.59,0,0,0,256,96.76Z" style="fill:#263238"></path><path d="M254.38,92.77c.22.21,1.44-.78,3.22-.85s3.14.77,3.32.55-.13-.49-.72-.88a4.59,4.59,0,0,0-2.67-.7,4.37,4.37,0,0,0-2.55.94C254.45,92.28,254.27,92.68,254.38,92.77Z" style="fill:#263238"></path><path d="M248.54,106.77a11.53,11.53,0,0,0-2.93-.41c-.46,0-.89-.1-1-.41a2.32,2.32,0,0,1,.25-1.36l1.2-3.53c1.67-5,2.86-9.15,2.66-9.22s-1.72,4-3.39,9c-.4,1.24-.79,2.42-1.15,3.55a2.6,2.6,0,0,0-.16,1.8,1.14,1.14,0,0,0,.77.64,2.81,2.81,0,0,0,.78.07A11.68,11.68,0,0,0,248.54,106.77Z" style="fill:#263238"></path><path d="M254.84,83.88c.19.48,2,.18,4.07.35s3.83.67,4.09.22c.12-.21-.2-.65-.9-1.1a7.14,7.14,0,0,0-6.22-.43C255.12,83.26,254.75,83.66,254.84,83.88Z" style="fill:#263238"></path><path d="M237.47,84.83c.39.39,1.83-.09,3.58-.18s3.24.14,3.57-.29c.14-.22-.11-.61-.78-1a6,6,0,0,0-5.75.38C237.49,84.21,237.3,84.64,237.47,84.83Z" style="fill:#263238"></path><path d="M273.65,98.58c.2-.1,7.9-2.7,8,5.26s-8.57,6.67-8.59,6.45S273.65,98.58,273.65,98.58Z" style="fill:#ffbf9d"></path><path d="M276.07,107s.14.1.38.2a1.4,1.4,0,0,0,1,0c.83-.31,1.53-1.65,1.56-3.09a4.67,4.67,0,0,0-.41-2,1.62,1.62,0,0,0-1.05-1.06.72.72,0,0,0-.82.39c-.1.22,0,.38-.09.4s-.18-.14-.11-.46a.92.92,0,0,1,.3-.51,1.08,1.08,0,0,1,.77-.21,2,2,0,0,1,1.46,1.22,4.71,4.71,0,0,1,.5,2.22c0,1.6-.84,3.11-2,3.46a1.51,1.51,0,0,1-1.27-.2C276.09,107.16,276.05,107,276.07,107Z" style="fill:#ff9a6c"></path><path d="M218.09,77.57a1.89,1.89,0,0,1,.87-1.11,5.82,5.82,0,0,1,3-.52A16.77,16.77,0,0,0,229.2,74,8.46,8.46,0,0,1,227,72.55a5,5,0,0,1-1.5-5,1.12,1.12,0,0,1,.62-.76c.52-.17,1,.33,1.34.73a4.3,4.3,0,0,0,4.07,1.67,7,7,0,0,0,3-.93l.09-.11L235.89,67h0c3-3,5.51-5.09,8.15-6.19,3.87-1.6,10.36-2.31,14.43-1.3s7.74,4.27,8.35,8.41c2.25-1.94,5.67-2,8.45-.88l.07,0c3.09,1.07,4.88,4.31,5.83,7.44.05.17.09.34.14.52a12.18,12.18,0,0,0,4.2,4c.3.17.64.38.68.72a1,1,0,0,1-.52.83,6.11,6.11,0,0,1-2.48,1.07,14.67,14.67,0,0,0,1,2.15c.36.59.78,1.29.48,1.9a1.29,1.29,0,0,1-1.35.61,3.78,3.78,0,0,1-1.44-.63c.35.82.7,1.64,1.06,2.46a7.35,7.35,0,0,1-3.36-.19c-.62,3-1.05,8.4-1.79,10.4-2.11.06-2.62-.16-3.69.2-1.37.48-.82,2.91-2.62,2.24-.92-.34-2.36-3.79-2.67-4.72a45.41,45.41,0,0,1-2.19-19.22,14.49,14.49,0,0,0-4.55-3.2l.14.12c-3.27-1.09-7-2.17-10-.6-2.38,1.21-3.76,3.71-5.53,5.72a16.63,16.63,0,0,1-12.23,6.12c-.41,3.52-.48,9.27-.62,12.55L231,90.9v0a12.81,12.81,0,0,1-.6-1.16l-.07-.11v0a18.94,18.94,0,0,0-.94-1.85l0,0a2,2,0,0,1-3-2.7,4.7,4.7,0,0,1,1-1,3.26,3.26,0,0,1-3.08.84,2.55,2.55,0,0,1-1.82-2.5,2.14,2.14,0,0,1,1.27-1.75,7.28,7.28,0,0,1-4.17-.87C218.63,79.36,217.82,78.6,218.09,77.57Z" style="fill:#263238"></path><path d="M263.17,69.24a10.61,10.61,0,0,1,1.18,1.06,8.31,8.31,0,0,1,1.83,3.85,14.77,14.77,0,0,1,.34,3c0,1.07-.06,2.22-.13,3.43a32.17,32.17,0,0,0,0,3.82,12.9,12.9,0,0,0,.28,2,4.21,4.21,0,0,0,.85,1.94,1.77,1.77,0,0,0,1.65.54A2.63,2.63,0,0,0,270.6,88a6.06,6.06,0,0,0,1.09-3l-.25,0a9.84,9.84,0,0,0,1.45,2.43,3.43,3.43,0,0,0,2.28,1.2,2.14,2.14,0,0,0,1.2-.22,2,2,0,0,0,.81-.81,2,2,0,0,0,.23-1,1.44,1.44,0,0,0-.38-.9l-.13.11a7.71,7.71,0,0,0,2.53,1.85,5.44,5.44,0,0,0,.78.29,1.28,1.28,0,0,0,.28.07,1,1,0,0,0-.27-.11c-.17-.07-.43-.17-.75-.33A7.7,7.7,0,0,1,277,85.72l-.12.11a1.51,1.51,0,0,1,.09,1.73,1.64,1.64,0,0,1-.73.72,2,2,0,0,1-1.08.19,3.2,3.2,0,0,1-2.12-1.15A9.31,9.31,0,0,1,271.68,85l-.17-.37-.08.4a5.86,5.86,0,0,1-1,2.85,2.42,2.42,0,0,1-1.32.76,1.5,1.5,0,0,1-1.4-.45,3.92,3.92,0,0,1-.78-1.82,13.51,13.51,0,0,1-.29-2,31.79,31.79,0,0,1,0-3.79c.06-1.21.13-2.36.1-3.45a14.48,14.48,0,0,0-.37-3,8.24,8.24,0,0,0-1.94-3.87A4.76,4.76,0,0,0,263.17,69.24Z" style="fill:#455a64"></path><path d="M227.25,81s0,0,.1.08l.29.21a4.54,4.54,0,0,0,.5.31,7.57,7.57,0,0,0,.71.37,10.4,10.4,0,0,0,5,.84,13.23,13.23,0,0,0,7-2.68,22.75,22.75,0,0,0,6-7c.84-1.42,1.51-2.88,2.26-4.22a15.41,15.41,0,0,1,2.56-3.58A8,8,0,0,1,255,63.21a5.77,5.77,0,0,1,1.77-.22,6.11,6.11,0,0,1,1.63.29,6.66,6.66,0,0,1,2.44,1.44,6.58,6.58,0,0,1,1.34,1.69,7.88,7.88,0,0,1,.62,1.74,1.09,1.09,0,0,0,0-.12q0-.15-.06-.36a5.76,5.76,0,0,0-.46-1.31,6.64,6.64,0,0,0-1.32-1.75,6.91,6.91,0,0,0-2.49-1.51,6.42,6.42,0,0,0-1.68-.32,5.9,5.9,0,0,0-1.84.22,8.16,8.16,0,0,0-3.45,2.11,15.54,15.54,0,0,0-2.62,3.63c-.75,1.35-1.43,2.8-2.25,4.21a23,23,0,0,1-5.88,7,13.15,13.15,0,0,1-6.87,2.68,10.51,10.51,0,0,1-4.94-.74A17.42,17.42,0,0,1,227.25,81Z" style="fill:#455a64"></path><path d="M226.13,75.88s.14.12.43.29a8.4,8.4,0,0,0,1.24.61,11.45,11.45,0,0,0,2,.63,13.7,13.7,0,0,0,2.51.3,14.3,14.3,0,0,0,2.52-.2,12.52,12.52,0,0,0,2-.54,8.51,8.51,0,0,0,1.26-.56,1.84,1.84,0,0,0,.44-.27s-.67.29-1.77.65a14,14,0,0,1-2,.47,14.7,14.7,0,0,1-2.47.18,15.26,15.26,0,0,1-2.46-.28,12.9,12.9,0,0,1-1.95-.56C226.78,76.2,226.16,75.84,226.13,75.88Z" style="fill:#455a64"></path><path d="M255.05,111c-.08.06-.22-.5-.85-.77a2.2,2.2,0,0,0-1.23,0c-.5.07-1.05.17-1.62.3-2.28.48-4,1.22-4.11,1.08a9.51,9.51,0,0,1,4-1.59,14.06,14.06,0,0,1,1.67-.27,2.38,2.38,0,0,1,1.44.15,1.43,1.43,0,0,1,.66.75C255.09,110.85,255.08,111,255.05,111Z" style="fill:#263238"></path><path d="M192.51,168.71a11.31,11.31,0,0,1,2.16,4.2c.34,1.93,4.66,27,5.79,30.49,1.4,4.36,4.31,13.23,15.89,9.9,8-2.3,8.29-14.51,2.84-21.2S204.66,166.21,204,163.72s-7.15-10-14.64-12-11.24-2-14-5.64-6.13-5.41-7.72-2.68,7.72,10.89,7.72,10.89l13,12.49Z" style="fill:#ffbf9d"></path><path d="M167.46,153.79s-5.76-7-9.52-4.09c0,0,4.88,6.53,6.53,8.3s5.93,3,5.93,3,4.28,4.95,6.58,5.61a5.9,5.9,0,0,0,3.76,0s.06,1.12,3.69,1.64,13.24-.46,13.24-.46l5.94-5s-3-5-7.52-5.1-7.91,3.36-7.91,3.36l-4-.07-2.44-3.16s.47-8.3-4.48-7.38c0,0-.17-2.66-2.28-2.92a2.56,2.56,0,0,0-2.7,1.91s.44-3.27-1.34-3.93a2.27,2.27,0,0,0-3.16,1.06C167.3,147.53,167.46,153.79,167.46,153.79Z" style="fill:#ffbf9d"></path><path d="M181.2,166.63a10.41,10.41,0,0,1-1.66-1.92c-.47-.63-1-1.38-1.58-2.26a4.31,4.31,0,0,1-.69-1.55,13.9,13.9,0,0,1-.26-1.75,44.46,44.46,0,0,1,0-6.14,11,11,0,0,1,.3-2.52,13.92,13.92,0,0,1,.07,2.54c0,1.56,0,3.72.15,6.07a12.5,12.5,0,0,0,.24,1.69,3.84,3.84,0,0,0,.6,1.41c.52.87,1,1.64,1.47,2.29A15.48,15.48,0,0,1,181.2,166.63Z" style="fill:#ff9a6c"></path><path d="M172.34,163.11a3.61,3.61,0,0,1-.73-1.91,22,22,0,0,1-.23-4.89,27.51,27.51,0,0,1,1-6.83c.14,0-.24,3.08-.43,6.85a32,32,0,0,0,.07,4.82C172.09,162.37,172.41,163.06,172.34,163.11Z" style="fill:#ff9a6c"></path><path d="M170.71,161.38a6.38,6.38,0,0,1-1.52-1.43c-.22-.24-.45-.5-.69-.8a4,4,0,0,1-.68-1.07,12.93,12.93,0,0,1-.41-2.78c-.13-2-.12-3.73-.09-5a7.78,7.78,0,0,1,.19-2.07c.16,0,.18,3.17.42,7a15.78,15.78,0,0,0,.34,2.67,4.24,4.24,0,0,0,.58,1l.62.83A10.86,10.86,0,0,1,170.71,161.38Z" style="fill:#ff9a6c"></path><path d="M188.18,161.1a4.31,4.31,0,0,1-1,.07l-2.91,0h-.08l-.05-.06a16.64,16.64,0,0,1-2.59-3.52l0-.05v0a14,14,0,0,0-.32-3.76,5.2,5.2,0,0,0-.88-1.8,2.48,2.48,0,0,0-1.66-1,3.31,3.31,0,0,0-1.29.1l-.31.07,0-.31a3.68,3.68,0,0,0-.49-1.76,2.39,2.39,0,0,0-1.33-1,1.66,1.66,0,0,0-1.5.24,3.24,3.24,0,0,0-1.07,1.11l-.37.65,0-.74a4.76,4.76,0,0,0-.72-2.89,2.37,2.37,0,0,0-2.09-.66,2.5,2.5,0,0,0-1.34.64c-.25.24-.34.41-.37.4a1.06,1.06,0,0,1,.28-.5,2.47,2.47,0,0,1,1.38-.79,2.63,2.63,0,0,1,2.4.66,5,5,0,0,1,.9,3.11l-.41-.09a3.63,3.63,0,0,1,1.2-1.3,2.15,2.15,0,0,1,1.91-.31,2.93,2.93,0,0,1,1.6,1.23,4.18,4.18,0,0,1,.58,2l-.32-.23a4.09,4.09,0,0,1,1.49-.12,2.91,2.91,0,0,1,2,1.22,5.63,5.63,0,0,1,1,2,13.7,13.7,0,0,1,.29,3.9l0-.1a17.88,17.88,0,0,0,2.44,3.51l-.13-.06,2.91.12A4.54,4.54,0,0,1,188.18,161.1Z" style="fill:#ff9a6c"></path><path d="M198.56,157.94a12,12,0,0,0-9.47,2.16s.31-.51,1.07-1.08a9.07,9.07,0,0,1,7-1.59A3.19,3.19,0,0,1,198.56,157.94Z" style="fill:#ff9a6c"></path><path d="M339.2,150.87a2.41,2.41,0,0,0-1.73,0,24.91,24.91,0,0,0-7.31,3.69l1.93,6.65c.75-1.44,4.24-3.32,5.46-4.39a6.44,6.44,0,0,0,2.55-4A2,2,0,0,0,339.2,150.87Z" style="fill:#ff9a6c"></path><path d="M296.44,208a71.91,71.91,0,0,1-.13-14.81c.55-4.43,4.22-17.5,4.47-21.59s.38-6,2.94-7.92,2.55-1,6.13-3.19,4.34-3.7,9.71-4,9.58,11.24,9.58,11.24-.26,2.43-1.28,3.07-2.3.76-5.49.63-6.39.64-6.65,2.56a49.88,49.88,0,0,0,1.41,13.66c1.28,4.73.25,10.22-.64,14.82s-2.74,14.64-10.09,15.45C297.77,218.87,296.44,208,296.44,208Z" style="fill:#ffbf9d"></path><path d="M309.51,165.58s4-.4,4.64-1.18,2.88-8.43,4.13-10.18,2.09-2.09,3.45-1.81c0,0-.18-3.43,2.92-3.92,0,0,1.93-.3,2.24,4.35,0,0-.33-4.43,2.95-5.94a1.65,1.65,0,0,1,2.17.71,1.94,1.94,0,0,1,.18.56c.2,1.06.47,6,.47,6s.36,6.7.45,6.41,4.13-9.31,4.71-10.18a2.55,2.55,0,0,1,2.84-1.48A1.5,1.5,0,0,1,342,150a5.35,5.35,0,0,1-.17,1.43c-.63,2.56-2.34,9.72-3,10.89s-6.84,7.66-9.36,7.87a20.65,20.65,0,0,1-4,0Z" style="fill:#ffbf9d"></path><path d="M317.72,169c-.06-.06.58-.8,1.41-2.13a11.81,11.81,0,0,0,1.19-2.44,6.31,6.31,0,0,0,.34-1.53c0-.57.09-1.16.13-1.76.19-2.4.39-4.57.56-6.14a13.07,13.07,0,0,1,.38-2.54,13,13,0,0,1,0,2.57c-.08,1.58-.22,3.76-.41,6.16-.05.6-.09,1.19-.14,1.76a7.11,7.11,0,0,1-.39,1.65,11.6,11.6,0,0,1-1.34,2.48A7.38,7.38,0,0,1,317.72,169Z" style="fill:#ff9a6c"></path><path d="M326.85,152.39a11.9,11.9,0,0,1,.23,2.52c.08,1.55.15,3.7.2,6.07,0,.59,0,1.17,0,1.73a7.22,7.22,0,0,1-.07,1.67,8.71,8.71,0,0,1-1.16,2.54,7.86,7.86,0,0,1-1.55,2c-.06,0,.49-.84,1.24-2.19a9.55,9.55,0,0,0,1-2.45,7.13,7.13,0,0,0,0-1.55c0-.56,0-1.14,0-1.73-.05-2.38-.06-4.53,0-6.09A12,12,0,0,1,326.85,152.39Z" style="fill:#ff9a6c"></path><path d="M333,159.92c.07,0,.33.44.36,1.27a4.25,4.25,0,0,1-.23,1.44,11.25,11.25,0,0,1-.78,1.55,14.28,14.28,0,0,1-2.63,3.51,25.5,25.5,0,0,1,2.18-3.78,15.22,15.22,0,0,0,.78-1.46,4.4,4.4,0,0,0,.31-1.28C333.06,160.42,332.94,159.94,333,159.92Z" style="fill:#ff9a6c"></path><path d="M305.67,165.54c0-.23,3.83.44,8.19-1.31l.21-.07-.16.15c.82-2.13,1.58-4,2.15-5.4a11.26,11.26,0,0,1,1-2.17,11.11,11.11,0,0,1-.68,2.3c-.49,1.4-1.19,3.33-2,5.46l0,.11-.11,0-.21.07a29.34,29.34,0,0,1-3.19.89,11.14,11.14,0,0,1-2.71.21A8.77,8.77,0,0,1,305.67,165.54Z" style="fill:#ff9a6c"></path></g></svg>
